<svg width="42" height="53" viewBox="0 0 42 53" fill="none" xmlns="http://www.w3.org/2000/svg">
<path d="M38.8723 18H13.4043V11.5C13.4043 9.24566 14.2045 7.08365 15.629 5.48959C17.0535 3.89553 18.9855 3 21 3C24.6415 3 27.9255 5.9225 28.6226 9.7975C28.6979 10.182 28.9053 10.5179 29.2 10.7328C29.4946 10.9477 29.853 11.0244 30.1977 10.9463C30.5425 10.8682 30.846 10.6417 31.0428 10.3154C31.2396 9.98922 31.3139 9.5895 31.2498 9.2025C30.2824 3.87 25.973 0 21 0C18.2756 0.0039689 15.6637 1.21685 13.7373 3.37266C11.8108 5.52846 10.727 8.45123 10.7234 11.5V18H3.12766C2.29815 18 1.50262 18.3687 0.91607 19.0251C0.32952 19.6815 0 20.5717 0 21.5V49.5C0 50.4283 0.32952 51.3185 0.91607 51.9749C1.50262 52.6312 2.29815 53 3.12766 53H38.8723C39.7018 53 40.4974 52.6312 41.0839 51.9749C41.6705 51.3185 42 50.4283 42 49.5V21.5C42 20.5717 41.6705 19.6815 41.0839 19.0251C40.4974 18.3687 39.7018 18 38.8723 18ZM39.3191 49.5C39.3191 49.6326 39.2721 49.7598 39.1883 49.8535C39.1045 49.9473 38.9908 50 38.8723 50H3.12766C3.00916 50 2.89551 49.9473 2.81172 49.8535C2.72793 49.7598 2.68085 49.6326 2.68085 49.5V21.5C2.68085 21.3674 2.72793 21.2402 2.81172 21.1464C2.89551 21.0527 3.00916 21 3.12766 21H38.8723C38.9908 21 39.1045 21.0527 39.1883 21.1464C39.2721 21.2402 39.3191 21.3674 39.3191 21.5V49.5ZM21 26C19.5777 26.0021 18.2055 26.5881 17.1436 27.647C16.0816 28.7058 15.4038 30.1639 15.2385 31.7448C15.0733 33.3256 15.4321 34.9194 16.247 36.2239C17.0618 37.5285 18.2761 38.4531 19.6596 38.8225V43.5C19.6596 43.8978 19.8008 44.2794 20.0522 44.5607C20.3036 44.842 20.6445 45 21 45C21.3555 45 21.6964 44.842 21.9478 44.5607C22.1992 44.2794 22.3404 43.8978 22.3404 43.5V38.8225C23.7239 38.4531 24.9382 37.5285 25.753 36.2239C26.5679 34.9194 26.9267 33.3256 26.7615 31.7448C26.5962 30.1639 25.9184 28.7058 24.8564 27.647C23.7945 26.5881 22.4223 26.0021 21 26ZM21 36C20.3814 36 19.7767 35.7947 19.2624 35.4101C18.748 35.0256 18.3471 34.4789 18.1104 33.8394C17.8737 33.1999 17.8118 32.4961 17.9324 31.8172C18.0531 31.1383 18.351 30.5146 18.7884 30.0251C19.2258 29.5356 19.7831 29.2023 20.3898 29.0672C20.9965 28.9322 21.6254 29.0015 22.1969 29.2664C22.7684 29.5313 23.2569 29.9799 23.6006 30.5555C23.9442 31.1311 24.1277 31.8078 24.1277 32.5C24.1277 33.4283 23.7981 34.3185 23.2116 34.9749C22.625 35.6313 21.8295 36 21 36Z" fill="#A11D20"/>
</svg>
